<?xml version="1.0" standalone="no"?><!DOCTYPE svg PUBLIC "-//W3C//DTD SVG 1.1//EN" "http://www.w3.org/Graphics/SVG/1.1/DTD/svg11.dtd"><svg t="1746978427269" class="icon" viewBox="0 0 1025 1024" version="1.1" xmlns="http://www.w3.org/2000/svg" p-id="2982" xmlns:xlink="http://www.w3.org/1999/xlink" width="200.1953125" height="200"><path d="M928.01024 416.01024c-28.42624 0-53.9648 12.36992-71.53664 32.01024l-189.952 0 134.30784-134.30784c26.3168 1.45408 53.10464-7.84384 73.216-27.9552 37.49888-37.49888 37.49888-98.28352 0-135.76192s-98.28352-37.49888-135.76192 0c-20.11136 20.11136-29.40928 46.8992-27.9552 73.216l-134.30784 134.30784 0-189.952c19.64032-17.57184 32.01024-43.1104 32.01024-71.53664 0-53.02272-42.98752-96.01024-96.01024-96.01024s-96.01024 42.98752-96.01024 96.01024c0 28.42624 12.36992 53.9648 32.01024 71.53664l0 189.952-134.30784-134.30784c1.45408-26.3168-7.86432-53.10464-27.9552-73.216-37.49888-37.49888-98.28352-37.49888-135.76192 0s-37.49888 98.28352 0 135.76192c20.11136 20.11136 46.8992 29.40928 73.216 27.9552l134.32832 134.30784-189.952 0c-17.57184-19.64032-43.1104-32.01024-71.53664-32.01024-53.02272 0-96.01024 42.98752-96.01024 96.01024s42.98752 96.01024 96.01024 96.01024c28.42624 0 53.9648-12.36992 71.53664-32.01024l189.952 0-134.30784 134.30784c-26.3168-1.45408-53.10464 7.84384-73.216 27.9552-37.49888 37.49888-37.49888 98.28352 0 135.76192s98.28352 37.49888 135.76192 0c20.11136-20.11136 29.40928-46.8992 27.9552-73.216l134.30784-134.32832 0 189.952c-19.64032 17.57184-32.01024 43.1104-32.01024 71.53664 0 53.02272 42.98752 96.01024 96.01024 96.01024s96.01024-42.98752 96.01024-96.01024c0-28.42624-12.36992-53.9648-32.01024-71.53664l0-189.952 134.30784 134.30784c-1.45408 26.3168 7.84384 53.10464 27.9552 73.216 37.49888 37.49888 98.28352 37.49888 135.76192 0s37.49888-98.28352 0-135.76192c-20.11136-20.11136-46.8992-29.40928-73.216-27.9552l-134.32832-134.30784 189.952 0c17.57184 19.64032 43.1104 32.01024 71.53664 32.01024 53.02272 0 96.01024-42.98752 96.01024-96.01024s-42.98752-96.01024-96.01024-96.01024z" fill="#13227a" p-id="2983"></path></svg>